<?xml version="1.0" encoding="UTF-8"?>
<svg id="Layer_1" data-name="Layer 1" xmlns="http://www.w3.org/2000/svg" viewBox="0 0 1179 1524.91">
  <path d="M599.42,30.42l-2.14,274.45c-1.99,2.25-44.76-23.93-48.1-28-6.74-8.2-6.85-21.51-19.41-21.51-18.47,0-62.58,22.35-82.62,29.1-106.57,35.9-216.43,43.12-328.64,42.33l-5.8,2.78c-4.03,3.89-13.99,68.78-15.01,79.33-.74,7.62.41,15.76-.05,23.54-20.9,351.37,15.94,791.8,317.56,1022.66,9.55,7.31,44.72,27.95,49.17,34.47,1.95,2.86,1.68,5.19-1.08,5.33-3.9.19-59.22-34.93-66.97-40.21-133.31-90.69-233.01-238.7-289.53-388.06C39.68,889.27,22.1,711.18,27,522.61c1.91-73.58,2.37-163.86,17.66-235.37,1.21-5.66,4.81-19.48,10.12-22.05s33.92-1.33,41.91-1.15c124.61,2.86,266.29-6.78,381.97-57.43,5.51-2.41,32.61-14.74,33.97-17.54,3.53-7.25-6.95-33.59-7.4-44.3-.66-15.85,21.57-32.46,30.97-43.58,16.89-19.97,33.59-43.68,51.4-62.24,1.64-1.71,9.76-10.95,11.81-8.54Z"/>
  <path d="M750.81,1114.59c-6.79,7.08-50.49,47.98-55.94,48.09l-5.03-3.65c-8.53-43.53,20.83-63.1,43.39-93.15,10.69-14.23,22.69-30.26,31.68-45.51,8.64-14.66,32.4-59.52,27.2-75.13-12.91-11.81-14.39,4.15-20.24,13.47-12.8,20.42-27.91,43.4-42.94,62.14-3.1,3.87-32.57,39.8-37.29,34.52,1.02-58.21-1.36-116.62-.1-174.84.5-23.15-.25-57.57,2.23-79.25,2.27-19.86,34.13-41.09,48.28-56.79,12.72-14.11,56.02-68.64,50.12-86.54-.85-2.57-2.57-3.46-5.15-3.66-6.83-.53-54.03,26.34-65.41,31.17-30.1,12.79-59.55,16.79-88.83,26.97-11.45,3.97-12.08,10.32-12.08,22.36,0,31.73,7.39,67.45,15.8,98.04,4.21,15.33,17.54,29.52,6.79,46.63-3.21,5.11-30.12,31.15-35.27,25.82l3.43-548.83c3.47-.96,13.02,4.69,16.56,6.71,79.24,45.28,183.56,136.69,200.23,230.77,5.22,29.44,1.92,59.67,2.69,89.52,2.19,85.51,9.66,194.51,1.96,278.39-5.42,59.04-42.35,111.37-82.08,152.77Z"/>
  <path d="M810.47,1309.29c-44.46,41.85-139.65,112.29-198.6,126.34-10.91,2.6-29.52-5.75-40.29-10.4-29.25-12.63-70.58-40.49-97.2-59.34-68.9-48.79-127.33-116.51-160.14-194.72,3.99-.57,5.94.24,8.66,3.11,8.08,8.53,17.36,27.8,25.7,38.63,52.87,68.67,151.29,142.8,233.11,172.16,34.82,12.5,65.96-7.97,96.35-24.85,172.12-95.63,278.18-268.06,334.53-452.42,4.55-14.89,3.27-37.19,15.67-47.56-19.75,169.67-93.18,331.75-217.8,449.05Z"/>
  <path d="M794.58,231.94c-.35-4.07,6.78-1.93,9.08-1.57,18.94,2.96,39.76,11.4,59.4,15.65,80.45,17.42,169.61,19.87,252.16,18.2,9.22-.19,28.09-7.28,34.16,4.26,1.59,3.03,3.84,16.65,3.31,20.17-1.64,10.94-22.32,8.06-31.21,7.73-33.87-1.27-81.18-6.85-115.43-11.09-72.3-8.94-143.25-28.82-211.47-53.36Z"/>
  <path d="M520.08,967.45l-14.97-114.73c-1.88-25.17,2.86-72.58-11.95-93.12-5.93-8.23-15.57-12.81-21.81-20.93-1.52-1.98-4.29-1.33-2.69-7.08,10.16,8.93,46.05,23.42,48.84,35.84,4.36,66.53,2.08,133.34,2.58,200.02Z"/>
  <path d="M526.52,1162.58c-3.62,3.8-26.91-16.01-31.03-19.34-28.39-23-72.34-67.32-89.82-98.88-1.23-2.21-6.75-10-3.51-11.52,2.22-1.6,5.07,2.89,6.37,4.37,21.04,23.87,40.42,47.21,65.53,67.42,19.91,16.03,56.79,28.38,52.46,57.95Z"/>
  <path d="M674.46,223.39c-2.99-1.04-5.77-3.63-5.87-6.99-.31-10.07,4.94-27.81,5.88-39.12,1.11-13.32,3.63-32.33,2.16-45.02-1.59-13.77-12-23.86-12.85-37.52,8.87,9.28,33.58,34.39,34.42,46.13.36,5.12-11.14,48.05-13.59,55.12-3.71,10.69-12.81,15.2-10.15,27.4Z"/>
</svg>